<?xml version="1.0" encoding="UTF-8" standalone="no"?>
<!-- Created with Inkscape (http://www.inkscape.org/) -->

<svg
   xmlns:dc="http://purl.org/dc/elements/1.1/"
   xmlns:cc="http://creativecommons.org/ns#"
   xmlns:rdf="http://www.w3.org/1999/02/22-rdf-syntax-ns#"
   xmlns:svg="http://www.w3.org/2000/svg"
   xmlns="http://www.w3.org/2000/svg"
   xmlns:sodipodi="http://sodipodi.sourceforge.net/DTD/sodipodi-0.dtd"
   xmlns:inkscape="http://www.inkscape.org/namespaces/inkscape"
   width="62.340012"
   height="71.781029"
   id="svg3900"
   version="1.1"
   inkscape:version="0.48.4 r9939"
   sodipodi:docname="logo.svg">
  <defs
     id="defs3902" />
  <sodipodi:namedview
     id="base"
     pagecolor="#ffffff"
     bordercolor="#666666"
     borderopacity="1.0"
     inkscape:pageopacity="0.0"
     inkscape:pageshadow="2"
     inkscape:zoom="0.35"
     inkscape:cx="14.74143"
     inkscape:cy="84.461947"
     inkscape:document-units="px"
     inkscape:current-layer="layer1"
     showgrid="false"
     inkscape:window-width="1920"
     inkscape:window-height="1018"
     inkscape:window-x="0"
     inkscape:window-y="27"
     inkscape:window-maximized="1"
     fit-margin-top="0"
     fit-margin-left="0"
     fit-margin-right="0"
     fit-margin-bottom="0" />
  <metadata
     id="metadata3905">
    <rdf:RDF>
      <cc:Work
         rdf:about="">
        <dc:format>image/svg+xml</dc:format>
        <dc:type
           rdf:resource="http://purl.org/dc/dcmitype/StillImage" />
        <dc:title />
      </cc:Work>
    </rdf:RDF>
  </metadata>
  <g
     inkscape:label="Livello 1"
     inkscape:groupmode="layer"
     id="layer1"
     transform="translate(-360.25857,-545.0431)">
    <path
       inkscape:connector-curvature="0"
       id="path6124"
       d="m 408.91498,616.76003 c -0.91985,-0.0761 -1.94543,-0.28547 -2.85577,-0.58433 -0.96042,-0.31542 -2.50705,-1.09637 -3.31744,-1.6759 -0.75558,-0.54044 -1.9213,-1.62979 -2.49461,-2.33188 -1.20891,-1.48221 -2.11519,-3.27566 -2.56742,-5.08627 -1.45552,-5.81821 1.05154,-11.80014 6.16993,-14.72066 1.23555,-0.70518 2.57215,-1.1761 4.14802,-1.46245 0.98021,-0.17771 3.02147,-0.16028 4.1012,0.0344 1.03287,0.18682 2.32517,0.60678 3.2315,1.04983 0.38963,0.1904 0.73723,0.34613 0.77271,0.34613 0.0985,0 0.086,-30.5786 -0.011,-30.63598 -0.086,-0.0527 -30.00108,-5.01884 -30.23083,-5.01884 l -0.16065,0 0,19.27399 c 0,12.93069 -0.0256,19.50995 -0.0739,19.99094 -0.78116,7.71372 -7.75052,13.03861 -15.11542,11.54749 -4.95374,-1.00303 -8.95687,-5.06933 -9.97879,-10.13678 -0.74418,-3.69042 0.037,-7.35125 2.23193,-10.44634 0.55136,-0.7775 2.12138,-2.3334 2.92598,-2.89926 1.23299,-0.86693 2.50188,-1.47887 3.91203,-1.88592 1.21726,-0.3517 1.75037,-0.4159 3.42685,-0.41345 1.34756,0 1.65342,0.0234 2.26741,0.15671 0.95569,0.20807 2.04527,0.57182 2.84109,0.94852 0.36112,0.17109 0.69882,0.31101 0.75041,0.31101 0.086,0 0.0985,-2.99093 0.0985,-19.03892 0,-13.53867 0.0256,-19.03897 0.0735,-19.03897 0.16354,0 43.44146,8.8807 43.48937,8.92385 0.0256,0.0256 0.049,11.54119 0.049,25.59071 0,22.48327 -0.011,25.62699 -0.0985,26.23194 -0.48147,3.14945 -2.10747,6.06226 -4.50034,8.06011 -2.07457,1.73161 -4.43891,2.69905 -7.12415,2.91547 -0.97398,0.0786 -0.93852,0.0786 -1.96409,0 z m -2.072,-6.06669 c 0.59197,-0.44734 1.56118,-1.1831 2.15427,-1.63476 0.71387,-0.54277 1.12147,-0.81042 1.2038,-0.78894 0.0739,0.0171 1.06504,0.73783 2.21577,1.60013 1.69771,1.27202 2.13386,1.56776 2.31164,1.56776 0.29236,0 0.53934,-0.23679 0.53934,-0.51721 0,-0.11916 -0.35966,-1.3316 -0.80093,-2.69477 -0.4394,-1.36329 -0.78956,-2.5346 -0.77861,-2.60302 0.011,-0.07 0.90779,-0.77666 2.06361,-1.62858 1.12398,-0.82726 2.1126,-1.56806 2.19858,-1.64618 0.28612,-0.26099 0.14749,-0.90254 -0.20745,-0.96386 -0.0494,-0.0124 -1.3007,-0.0161 -2.78473,-0.0172 l -2.69839,0 -0.80828,-2.6284 c -0.86126,-2.79612 -0.89784,-2.8756 -1.31787,-2.8756 -0.29969,0 -0.50386,0.2517 -0.67802,0.83576 -0.086,0.28286 -0.44124,1.449 -0.79101,2.59133 l -0.63777,2.07691 -2.76244,0.0183 c -3.00314,0.0198 -2.93292,0.0124 -3.08658,0.41199 -0.14012,0.36578 0,0.49438 2.25897,2.16498 1.345,0.99187 2.17629,1.6491 2.17629,1.72048 0,0.0639 -0.35856,1.25027 -0.79578,2.63753 -0.43871,1.3871 -0.79582,2.58127 -0.79582,2.65351 0,0.18879 0.37212,0.53601 0.5759,0.53601 0.11053,0 0.54663,-0.28448 1.24551,-0.81351 z"
       style="fill:#aa0000;fill-opacity:1" />
  </g>
</svg>
